<svg xmlns="http://www.w3.org/2000/svg"
     viewBox="0 0 512 512"
     role="img"
     aria-labelledby="title desc">
  <title id="title">Black Desert Online Amity Solver logo</title>
  <desc id="desc">A hexagonal graph with a highlighted optimal path ending at a target node.</desc>

  <!-- Transparent background -->

  <!-- Outer hexagon -->
  <path
    d="M256 36 L438 141 L438 371 L256 476 L74 371 L74 141 Z"
    fill="none"
    stroke="#D4AF37"
    stroke-width="20"
    stroke-linejoin="round"
  />

  <!-- Inactive graph edges -->
  <g
    fill="none"
    stroke="#9CA3AF"
    stroke-width="14"
    stroke-linecap="butt"
    stroke-linejoin="round"
    opacity="0.9"
  >
    <path d="M159.23 205.89 L202.77 160.11" />
    <path d="M244.17 148.38 L301.83 163.62" />
    <path d="M339.21 191.23 L364.04 231.13" />
    <path d="M157.00 244.00 L187.00 284.00" />
    <path d="M224.08 315.72 L277.92 344.28" />
    <path d="M316.24 336.99 L359.92 285.85" />
    <path d="M217.24 166.85 L204.76 279.15" />
    <path d="M322.54 194.76 L303.46 331.24" />
    <path d="M218.98 285.65 L309.02 188.35" />
  </g>

  <!-- Highlighted optimal path -->
  <g
    fill="none"
    stroke="#D4AF37"
    stroke-width="22"
    stroke-linecap="butt"
    stroke-linejoin="round"
  >
    <path d="M157.00 244.00 L187.00 284.00" />
    <path d="M224.08 315.72 L277.92 344.28" />
    <path d="M316.24 336.99 L359.92 285.85" />
  </g>

  <!-- Regular nodes -->
  <g stroke-width="14">
    <circle cx="142" cy="224" r="25" fill="none" stroke="#D4AF37" />
    <circle cx="220" cy="142" r="25" fill="none" stroke="#D1D5DB" />
    <circle cx="326" cy="170" r="25" fill="none" stroke="#D1D5DB" />
    <circle cx="202" cy="304" r="25" fill="none" stroke="#D4AF37" />
    <circle cx="300" cy="356" r="25" fill="none" stroke="#D4AF37" />
  </g>

  <!-- Goal node -->
  <circle cx="382" cy="260" r="34" fill="none" stroke="#D4AF37" stroke-width="16" />
  <circle cx="382" cy="260" r="15" fill="#D4AF37" />
</svg>
